<svg width="270" height="125" viewBox="0 0 270 125" fill="none" xmlns="http://www.w3.org/2000/svg">
<path d="M76.556 41.67C77.2147 41.67 77.7593 41.898 78.19 42.354C78.6207 42.7847 78.836 43.3293 78.836 43.988V53.64C78.836 56.376 78.076 58.5167 76.556 60.062C75.0613 61.6073 72.9207 62.38 70.134 62.38C67.3473 62.38 65.2067 61.6073 63.712 60.062C62.2173 58.5167 61.47 56.376 61.47 53.64V43.988C61.47 43.3293 61.6853 42.7847 62.116 42.354C62.5467 41.898 63.0913 41.67 63.75 41.67C64.4087 41.67 64.9533 41.898 65.384 42.354C65.8147 42.7847 66.03 43.3293 66.03 43.988V53.64C66.03 55.1853 66.372 56.338 67.056 57.098C67.74 57.8327 68.766 58.2 70.134 58.2C71.5273 58.2 72.566 57.8327 73.25 57.098C73.934 56.338 74.276 55.1853 74.276 53.64V43.988C74.276 43.3293 74.4913 42.7847 74.922 42.354C75.3527 41.898 75.8973 41.67 76.556 41.67ZM93.5387 41.29C95.2867 41.29 96.8701 41.746 98.2887 42.658C99.7074 43.5447 100.822 44.786 101.633 46.382C102.469 47.978 102.887 49.7893 102.887 51.816C102.887 53.8427 102.481 55.6667 101.671 57.288C100.86 58.884 99.7454 60.138 98.3267 61.05C96.9334 61.9367 95.3881 62.38 93.6907 62.38C92.4747 62.38 91.3221 62.1393 90.2327 61.658C89.1687 61.1513 88.2821 60.5433 87.5727 59.834V67.282C87.5727 67.9407 87.3574 68.4853 86.9267 68.916C86.4961 69.372 85.9514 69.6 85.2927 69.6C84.6341 69.6 84.0894 69.3847 83.6587 68.954C83.2281 68.5233 83.0127 67.966 83.0127 67.282V43.988C83.0127 43.3293 83.2281 42.7847 83.6587 42.354C84.0894 41.898 84.6341 41.67 85.2927 41.67C85.9514 41.67 86.4961 41.898 86.9267 42.354C87.3574 42.7847 87.5727 43.3293 87.5727 43.988V44.14C88.1807 43.38 89.0294 42.7213 90.1187 42.164C91.2081 41.5813 92.3481 41.29 93.5387 41.29ZM92.9687 58.2C94.5901 58.2 95.9201 57.592 96.9587 56.376C97.9974 55.16 98.5167 53.64 98.5167 51.816C98.5167 49.992 97.9974 48.4847 96.9587 47.294C95.9454 46.078 94.6154 45.47 92.9687 45.47C91.3221 45.47 89.9794 46.078 88.9407 47.294C87.9021 48.4847 87.3827 49.992 87.3827 51.816C87.3827 53.64 87.9021 55.16 88.9407 56.376C89.9794 57.592 91.3221 58.2 92.9687 58.2ZM124.169 51.36C124.143 51.968 123.903 52.462 123.447 52.842C122.991 53.222 122.459 53.412 121.851 53.412H109.311C109.615 54.9067 110.311 56.0847 111.401 56.946C112.49 57.782 113.719 58.2 115.087 58.2C116.125 58.2 116.936 58.1113 117.519 57.934C118.101 57.7313 118.557 57.5287 118.887 57.326C119.241 57.098 119.482 56.946 119.609 56.87C120.065 56.642 120.495 56.528 120.901 56.528C121.433 56.528 121.889 56.718 122.269 57.098C122.649 57.478 122.839 57.9213 122.839 58.428C122.839 59.112 122.484 59.7327 121.775 60.29C121.065 60.8727 120.115 61.3667 118.925 61.772C117.734 62.1773 116.531 62.38 115.315 62.38C113.187 62.38 111.325 61.9367 109.729 61.05C108.158 60.1633 106.942 58.9473 106.081 57.402C105.219 55.8313 104.789 54.0707 104.789 52.12C104.789 49.9413 105.245 48.0287 106.157 46.382C107.069 44.7353 108.272 43.4813 109.767 42.62C111.261 41.7333 112.857 41.29 114.555 41.29C116.227 41.29 117.797 41.746 119.267 42.658C120.761 43.57 121.952 44.7987 122.839 46.344C123.725 47.8893 124.169 49.5613 124.169 51.36ZM114.555 45.47C111.616 45.47 109.881 46.8507 109.349 49.612H119.305V49.346C119.203 48.282 118.684 47.37 117.747 46.61C116.809 45.85 115.745 45.47 114.555 45.47ZM137.775 41.29C138.535 41.29 139.169 41.5053 139.675 41.936C140.207 42.3667 140.473 42.8733 140.473 43.456C140.473 44.2413 140.271 44.8367 139.865 45.242C139.46 45.622 138.979 45.812 138.421 45.812C138.041 45.812 137.611 45.7233 137.129 45.546C137.053 45.5207 136.876 45.47 136.597 45.394C136.344 45.318 136.065 45.28 135.761 45.28C135.103 45.28 134.469 45.4827 133.861 45.888C133.253 46.2933 132.747 46.914 132.341 47.75C131.961 48.5607 131.771 49.536 131.771 50.676V59.682C131.771 60.3407 131.556 60.898 131.125 61.354C130.695 61.7847 130.15 62 129.491 62C128.833 62 128.288 61.7847 127.857 61.354C127.427 60.898 127.211 60.3407 127.211 59.682V43.988C127.211 43.3293 127.427 42.7847 127.857 42.354C128.288 41.898 128.833 41.67 129.491 41.67C130.15 41.67 130.695 41.898 131.125 42.354C131.556 42.7847 131.771 43.3293 131.771 43.988V44.482C132.354 43.4433 133.19 42.658 134.279 42.126C135.369 41.5687 136.534 41.29 137.775 41.29ZM166.374 41.29C168.882 41.29 170.617 42.0627 171.58 43.608C172.543 45.128 173.024 47.2433 173.024 49.954V59.682C173.024 60.3407 172.809 60.898 172.378 61.354C171.947 61.7847 171.403 62 170.744 62C170.085 62 169.541 61.7847 169.11 61.354C168.679 60.898 168.464 60.3407 168.464 59.682V49.954C168.464 48.5607 168.185 47.4713 167.628 46.686C167.096 45.8753 166.146 45.47 164.778 45.47C163.359 45.47 162.245 45.9007 161.434 46.762C160.649 47.598 160.256 48.662 160.256 49.954V59.682C160.256 60.3407 160.041 60.898 159.61 61.354C159.179 61.7847 158.635 62 157.976 62C157.317 62 156.773 61.7847 156.342 61.354C155.911 60.898 155.696 60.3407 155.696 59.682V49.954C155.696 48.5607 155.417 47.4713 154.86 46.686C154.328 45.8753 153.378 45.47 152.01 45.47C150.591 45.47 149.477 45.9007 148.666 46.762C147.881 47.598 147.488 48.662 147.488 49.954V59.682C147.488 60.3407 147.273 60.898 146.842 61.354C146.411 61.7847 145.867 62 145.208 62C144.549 62 144.005 61.7847 143.574 61.354C143.143 60.898 142.928 60.3407 142.928 59.682V43.988C142.928 43.3293 143.143 42.7847 143.574 42.354C144.005 41.898 144.549 41.67 145.208 41.67C145.867 41.67 146.411 41.898 146.842 42.354C147.273 42.7847 147.488 43.3293 147.488 43.988V44.596C148.172 43.684 149.033 42.9113 150.072 42.278C151.136 41.6193 152.314 41.29 153.606 41.29C156.798 41.29 158.837 42.6833 159.724 45.47C160.307 44.406 161.181 43.4433 162.346 42.582C163.537 41.7207 164.879 41.29 166.374 41.29ZM193.653 41.29C194.312 41.29 194.857 41.5053 195.287 41.936C195.718 42.3667 195.933 42.924 195.933 43.608V59.682C195.933 60.3407 195.718 60.898 195.287 61.354C194.857 61.7847 194.312 62 193.653 62C192.995 62 192.45 61.7847 192.019 61.354C191.614 60.9233 191.399 60.3787 191.373 59.72C190.74 60.4547 189.879 61.088 188.789 61.62C187.725 62.1267 186.598 62.38 185.407 62.38C183.659 62.38 182.076 61.9367 180.657 61.05C179.239 60.138 178.111 58.884 177.275 57.288C176.465 55.692 176.059 53.8807 176.059 51.854C176.059 49.8273 176.465 48.016 177.275 46.42C178.086 44.7987 179.188 43.5447 180.581 42.658C182 41.746 183.558 41.29 185.255 41.29C186.471 41.29 187.611 41.518 188.675 41.974C189.739 42.4047 190.639 42.962 191.373 43.646V43.608C191.373 42.9493 191.589 42.4047 192.019 41.974C192.45 41.518 192.995 41.29 193.653 41.29ZM185.977 58.2C187.624 58.2 188.967 57.6047 190.005 56.414C191.044 55.198 191.563 53.678 191.563 51.854C191.563 50.03 191.044 48.51 190.005 47.294C188.967 46.078 187.624 45.47 185.977 45.47C184.356 45.47 183.026 46.078 181.987 47.294C180.949 48.51 180.429 50.03 180.429 51.854C180.429 53.678 180.936 55.198 181.949 56.414C182.988 57.6047 184.331 58.2 185.977 58.2ZM210.679 41.29C211.439 41.29 212.072 41.5053 212.579 41.936C213.111 42.3667 213.377 42.8733 213.377 43.456C213.377 44.2413 213.174 44.8367 212.769 45.242C212.364 45.622 211.882 45.812 211.325 45.812C210.945 45.812 210.514 45.7233 210.033 45.546C209.957 45.5207 209.78 45.47 209.501 45.394C209.248 45.318 208.969 45.28 208.665 45.28C208.006 45.28 207.373 45.4827 206.765 45.888C206.157 46.2933 205.65 46.914 205.245 47.75C204.865 48.5607 204.675 49.536 204.675 50.676V59.682C204.675 60.3407 204.46 60.898 204.029 61.354C203.598 61.7847 203.054 62 202.395 62C201.736 62 201.192 61.7847 200.761 61.354C200.33 60.898 200.115 60.3407 200.115 59.682V43.988C200.115 43.3293 200.33 42.7847 200.761 42.354C201.192 41.898 201.736 41.67 202.395 41.67C203.054 41.67 203.598 41.898 204.029 42.354C204.46 42.7847 204.675 43.3293 204.675 43.988V44.482C205.258 43.4433 206.094 42.658 207.183 42.126C208.272 41.5687 209.438 41.29 210.679 41.29ZM232.742 58.01C233.223 58.5167 233.464 59.0867 233.464 59.72C233.464 60.3533 233.21 60.8853 232.704 61.316C232.222 61.7467 231.703 61.962 231.146 61.962C230.487 61.962 229.93 61.7087 229.474 61.202L222.634 53.982L220.772 55.692V59.682C220.772 60.3407 220.556 60.898 220.126 61.354C219.695 61.7847 219.15 62 218.492 62C217.833 62 217.288 61.7847 216.858 61.354C216.427 60.898 216.212 60.3407 216.212 59.682V36.198C216.212 35.5393 216.427 34.9947 216.858 34.564C217.288 34.108 217.833 33.88 218.492 33.88C219.15 33.88 219.695 34.108 220.126 34.564C220.556 34.9947 220.772 35.5393 220.772 36.198V50.258L228.904 42.392C229.385 41.9107 229.942 41.67 230.576 41.67C231.133 41.67 231.627 41.9107 232.058 42.392C232.514 42.848 232.742 43.3167 232.742 43.798C232.742 44.406 232.438 44.976 231.83 45.508L226.092 50.79L232.742 58.01ZM254.093 51.36C254.068 51.968 253.827 52.462 253.371 52.842C252.915 53.222 252.383 53.412 251.775 53.412H239.235C239.539 54.9067 240.236 56.0847 241.325 56.946C242.414 57.782 243.643 58.2 245.011 58.2C246.05 58.2 246.86 58.1113 247.443 57.934C248.026 57.7313 248.482 57.5287 248.811 57.326C249.166 57.098 249.406 56.946 249.533 56.87C249.989 56.642 250.42 56.528 250.825 56.528C251.357 56.528 251.813 56.718 252.193 57.098C252.573 57.478 252.763 57.9213 252.763 58.428C252.763 59.112 252.408 59.7327 251.699 60.29C250.99 60.8727 250.04 61.3667 248.849 61.772C247.658 62.1773 246.455 62.38 245.239 62.38C243.111 62.38 241.249 61.9367 239.653 61.05C238.082 60.1633 236.866 58.9473 236.005 57.402C235.144 55.8313 234.713 54.0707 234.713 52.12C234.713 49.9413 235.169 48.0287 236.081 46.382C236.993 44.7353 238.196 43.4813 239.691 42.62C241.186 41.7333 242.782 41.29 244.479 41.29C246.151 41.29 247.722 41.746 249.191 42.658C250.686 43.57 251.876 44.7987 252.763 46.344C253.65 47.8893 254.093 49.5613 254.093 51.36ZM244.479 45.47C241.54 45.47 239.805 46.8507 239.273 49.612H249.229V49.346C249.128 48.282 248.608 47.37 247.671 46.61C246.734 45.85 245.67 45.47 244.479 45.47ZM266.94 57.706C267.295 57.706 267.611 57.8833 267.89 58.238C268.194 58.5673 268.346 59.0107 268.346 59.568C268.346 60.252 267.966 60.8347 267.206 61.316C266.471 61.772 265.635 62 264.698 62C263.127 62 261.797 61.6707 260.708 61.012C259.644 60.328 259.112 58.8967 259.112 56.718V46.23H257.364C256.756 46.23 256.249 46.0273 255.844 45.622C255.439 45.2167 255.236 44.71 255.236 44.102C255.236 43.5193 255.439 43.038 255.844 42.658C256.249 42.2527 256.756 42.05 257.364 42.05H259.112V39.618C259.112 38.9593 259.327 38.4147 259.758 37.984C260.214 37.528 260.771 37.3 261.43 37.3C262.063 37.3 262.595 37.528 263.026 37.984C263.457 38.4147 263.672 38.9593 263.672 39.618V42.05H266.37C266.978 42.05 267.485 42.2527 267.89 42.658C268.295 43.0633 268.498 43.57 268.498 44.178C268.498 44.7607 268.295 45.2547 267.89 45.66C267.485 46.04 266.978 46.23 266.37 46.23H263.672V56.528C263.672 57.06 263.811 57.4527 264.09 57.706C264.369 57.934 264.749 58.048 265.23 58.048C265.433 58.048 265.711 57.9973 266.066 57.896C266.37 57.7693 266.661 57.706 266.94 57.706Z" fill="white"/>
<path d="M71.324 79.29C73.4773 79.29 75.2127 79.632 76.53 80.316C77.8473 80.9747 78.506 81.8613 78.506 82.976C78.506 83.5333 78.3413 84.0273 78.012 84.458C77.6827 84.8633 77.252 85.066 76.72 85.066C76.3147 85.066 75.9853 85.0153 75.732 84.914C75.4787 84.7873 75.2253 84.6353 74.972 84.458C74.744 84.2553 74.516 84.0907 74.288 83.964C74.0347 83.8373 73.6547 83.7233 73.148 83.622C72.6667 83.5207 72.274 83.47 71.97 83.47C70.07 83.47 68.5753 84.0653 67.486 85.256C66.422 86.4213 65.89 87.954 65.89 89.854C65.89 91.678 66.4347 93.198 67.524 94.414C68.6133 95.6047 70.0067 96.2 71.704 96.2C72.9453 96.2 73.87 96.048 74.478 95.744C74.63 95.668 74.8327 95.5413 75.086 95.364C75.3647 95.1613 75.618 95.0093 75.846 94.908C76.074 94.8067 76.3527 94.756 76.682 94.756C77.3153 94.756 77.8093 94.9587 78.164 95.364C78.544 95.7693 78.734 96.2887 78.734 96.922C78.734 97.53 78.3793 98.1 77.67 98.632C76.9607 99.164 76.0233 99.5947 74.858 99.924C73.6927 100.228 72.4513 100.38 71.134 100.38C69.1833 100.38 67.4607 99.924 65.966 99.012C64.4967 98.1 63.3567 96.846 62.546 95.25C61.7353 93.6287 61.33 91.83 61.33 89.854C61.33 87.802 61.748 85.978 62.584 84.382C63.4453 82.786 64.636 81.5447 66.156 80.658C67.676 79.746 69.3987 79.29 71.324 79.29ZM97.7206 79.29C98.3793 79.29 98.924 79.5053 99.3546 79.936C99.7853 80.3667 100.001 80.924 100.001 81.608V97.682C100.001 98.3407 99.7853 98.898 99.3546 99.354C98.924 99.7847 98.3793 100 97.7206 100C97.062 100 96.5173 99.7847 96.0866 99.354C95.6813 98.9233 95.466 98.3787 95.4406 97.72C94.8073 98.4547 93.946 99.088 92.8566 99.62C91.7926 100.127 90.6653 100.38 89.4746 100.38C87.7266 100.38 86.1433 99.9367 84.7246 99.05C83.306 98.138 82.1786 96.884 81.3426 95.288C80.532 93.692 80.1266 91.8807 80.1266 89.854C80.1266 87.8273 80.532 86.016 81.3426 84.42C82.1533 82.7987 83.2553 81.5447 84.6486 80.658C86.0673 79.746 87.6253 79.29 89.3226 79.29C90.5386 79.29 91.6786 79.518 92.7426 79.974C93.8066 80.4047 94.706 80.962 95.4406 81.646V81.608C95.4406 80.9493 95.656 80.4047 96.0866 79.974C96.5173 79.518 97.062 79.29 97.7206 79.29ZM90.0446 96.2C91.6913 96.2 93.034 95.6047 94.0726 94.414C95.1113 93.198 95.6306 91.678 95.6306 89.854C95.6306 88.03 95.1113 86.51 94.0726 85.294C93.034 84.078 91.6913 83.47 90.0446 83.47C88.4233 83.47 87.0933 84.078 86.0546 85.294C85.016 86.51 84.4966 88.03 84.4966 89.854C84.4966 91.678 85.0033 93.198 86.0166 94.414C87.0553 95.6047 88.398 96.2 90.0446 96.2ZM115.05 79.29C117.634 79.29 119.42 80.0627 120.408 81.608C121.396 83.128 121.89 85.2433 121.89 87.954V97.682C121.89 98.3407 121.675 98.898 121.244 99.354C120.814 99.7847 120.269 100 119.61 100C118.952 100 118.407 99.7847 117.976 99.354C117.546 98.898 117.33 98.3407 117.33 97.682V87.954C117.33 86.5607 117.039 85.4713 116.456 84.686C115.874 83.8753 114.873 83.47 113.454 83.47C111.985 83.47 110.832 83.9007 109.996 84.762C109.16 85.598 108.742 86.662 108.742 87.954V97.682C108.742 98.3407 108.527 98.898 108.096 99.354C107.666 99.7847 107.121 100 106.462 100C105.804 100 105.259 99.7847 104.828 99.354C104.398 98.898 104.182 98.3407 104.182 97.682V81.988C104.182 81.3293 104.398 80.7847 104.828 80.354C105.259 79.898 105.804 79.67 106.462 79.67C107.121 79.67 107.666 79.898 108.096 80.354C108.527 80.7847 108.742 81.3293 108.742 81.988V82.634C109.426 81.722 110.313 80.9367 111.402 80.278C112.517 79.6193 113.733 79.29 115.05 79.29ZM136.927 79.29C139.511 79.29 141.297 80.0627 142.285 81.608C143.273 83.128 143.767 85.2433 143.767 87.954V97.682C143.767 98.3407 143.552 98.898 143.121 99.354C142.69 99.7847 142.146 100 141.487 100C140.828 100 140.284 99.7847 139.853 99.354C139.422 98.898 139.207 98.3407 139.207 97.682V87.954C139.207 86.5607 138.916 85.4713 138.333 84.686C137.75 83.8753 136.75 83.47 135.331 83.47C133.862 83.47 132.709 83.9007 131.873 84.762C131.037 85.598 130.619 86.662 130.619 87.954V97.682C130.619 98.3407 130.404 98.898 129.973 99.354C129.542 99.7847 128.998 100 128.339 100C127.68 100 127.136 99.7847 126.705 99.354C126.274 98.898 126.059 98.3407 126.059 97.682V81.988C126.059 81.3293 126.274 80.7847 126.705 80.354C127.136 79.898 127.68 79.67 128.339 79.67C128.998 79.67 129.542 79.898 129.973 80.354C130.404 80.7847 130.619 81.3293 130.619 81.988V82.634C131.303 81.722 132.19 80.9367 133.279 80.278C134.394 79.6193 135.61 79.29 136.927 79.29ZM166.176 89.36C166.151 89.968 165.91 90.462 165.454 90.842C164.998 91.222 164.466 91.412 163.858 91.412H151.318C151.622 92.9067 152.319 94.0847 153.408 94.946C154.497 95.782 155.726 96.2 157.094 96.2C158.133 96.2 158.943 96.1113 159.526 95.934C160.109 95.7313 160.565 95.5287 160.894 95.326C161.249 95.098 161.489 94.946 161.616 94.87C162.072 94.642 162.503 94.528 162.908 94.528C163.44 94.528 163.896 94.718 164.276 95.098C164.656 95.478 164.846 95.9213 164.846 96.428C164.846 97.112 164.491 97.7327 163.782 98.29C163.073 98.8727 162.123 99.3667 160.932 99.772C159.741 100.177 158.538 100.38 157.322 100.38C155.194 100.38 153.332 99.9367 151.736 99.05C150.165 98.1633 148.949 96.9473 148.088 95.402C147.227 93.8313 146.796 92.0707 146.796 90.12C146.796 87.9413 147.252 86.0287 148.164 84.382C149.076 82.7353 150.279 81.4813 151.774 80.62C153.269 79.7333 154.865 79.29 156.562 79.29C158.234 79.29 159.805 79.746 161.274 80.658C162.769 81.57 163.959 82.7987 164.846 84.344C165.733 85.8893 166.176 87.5613 166.176 89.36ZM156.562 83.47C153.623 83.47 151.888 84.8507 151.356 87.612H161.312V87.346C161.211 86.282 160.691 85.37 159.754 84.61C158.817 83.85 157.753 83.47 156.562 83.47ZM179.783 79.29C180.543 79.29 181.176 79.5053 181.683 79.936C182.215 80.3667 182.481 80.8733 182.481 81.456C182.481 82.2413 182.278 82.8367 181.873 83.242C181.467 83.622 180.986 83.812 180.429 83.812C180.049 83.812 179.618 83.7233 179.137 83.546C179.061 83.5207 178.883 83.47 178.605 83.394C178.351 83.318 178.073 83.28 177.769 83.28C177.11 83.28 176.477 83.4827 175.869 83.888C175.261 84.2933 174.754 84.914 174.349 85.75C173.969 86.5607 173.779 87.536 173.779 88.676V97.682C173.779 98.3407 173.563 98.898 173.133 99.354C172.702 99.7847 172.157 100 171.499 100C170.84 100 170.295 99.7847 169.865 99.354C169.434 98.898 169.219 98.3407 169.219 97.682V81.988C169.219 81.3293 169.434 80.7847 169.865 80.354C170.295 79.898 170.84 79.67 171.499 79.67C172.157 79.67 172.702 79.898 173.133 80.354C173.563 80.7847 173.779 81.3293 173.779 81.988V82.482C174.361 81.4433 175.197 80.658 176.287 80.126C177.376 79.5687 178.541 79.29 179.783 79.29Z" fill="white"/>
<path d="M30 101C25.2 101 20.9333 100.4 17.2 99.2C13.4667 98 9.96667 95.9667 6.7 93.1C4.9 91.5 4 89.7333 4 87.8C4 86.2667 4.56667 84.9333 5.7 83.8C6.83333 82.6 8.2 82 9.8 82C11.0667 82 12.2 82.4 13.2 83.2C15.8667 85.4 18.4667 87 21 88C23.5333 89 26.5333 89.5 30 89.5C33.7333 89.5 36.9333 88.6667 39.6 87C42.3333 85.3333 43.7 83.2667 43.7 80.8C43.7 77.8 42.3667 75.4667 39.7 73.8C37.0333 72.0667 32.8 70.7667 27 69.9C12.4 67.7667 5.1 60.9667 5.1 49.5C5.1 45.3 6.2 41.6667 8.4 38.6C10.6 35.4667 13.6 33.1 17.4 31.5C21.2 29.8333 25.4333 29 30.1 29C34.3 29 38.2333 29.6333 41.9 30.9C45.6333 32.1667 48.7333 33.8333 51.2 35.9C53.1333 37.4333 54.1 39.2 54.1 41.2C54.1 42.7333 53.5333 44.1 52.4 45.3C51.2667 46.4333 49.9333 47 48.4 47C47.4 47 46.5 46.7 45.7 46.1C43.9667 44.7 41.5333 43.4333 38.4 42.3C35.3333 41.1 32.5667 40.5 30.1 40.5C25.9 40.5 22.6333 41.3 20.3 42.9C18.0333 44.4333 16.9 46.4667 16.9 49C16.9 51.8667 18.0667 54.0333 20.4 55.5C22.8 56.9667 26.5333 58.1667 31.6 59.1C37.3333 60.1 41.9 61.4 45.3 63C48.7667 64.5333 51.3667 66.6667 53.1 69.4C54.8333 72.0667 55.7 75.6333 55.7 80.1C55.7 84.3 54.5 88 52.1 91.2C49.7667 94.3333 46.6333 96.7667 42.7 98.5C38.7667 100.167 34.5333 101 30 101Z" fill="white"/>
</svg>
